<svg xmlns="http://www.w3.org/2000/svg" viewBox="0 0 400 400" aria-hidden="true">
  <defs>
    <radialGradient id="glow" cx="50%" cy="50%" r="50%">
      <stop offset="0%" stop-color="#D4AF37" stop-opacity="0.25"/>
      <stop offset="100%" stop-color="#0A0F2C" stop-opacity="0"/>
    </radialGradient>
  </defs>
  <rect width="400" height="400" fill="#0A0F2C"/>
  <circle cx="200" cy="200" r="180" fill="url(#glow)"/>
  <g stroke="#D4AF37" stroke-opacity="0.35" stroke-width="1">
    <line x1="200" y1="80" x2="120" y2="160"/><line x1="200" y1="80" x2="280" y2="160"/>
    <line x1="120" y1="160" x2="80" y2="260"/><line x1="280" y1="160" x2="320" y2="260"/>
    <line x1="80" y1="260" x2="200" y2="320"/><line x1="320" y1="260" x2="200" y2="320"/>
    <line x1="120" y1="160" x2="280" y2="160"/><line x1="200" y1="80" x2="200" y2="320"/>
  </g>
  <g fill="#D4AF37">
    <circle cx="200" cy="80" r="6"/><circle cx="120" cy="160" r="5"/><circle cx="280" cy="160" r="5"/>
    <circle cx="80" cy="260" r="4"/><circle cx="320" cy="260" r="4"/><circle cx="200" cy="320" r="6"/>
    <circle cx="200" cy="200" r="8" fill="#FFFFFF"/>
  </g>
</svg>
