<svg xmlns="http://www.w3.org/2000/svg" viewBox="0 0 48 48" aria-hidden="true">
  <defs>
    <linearGradient id="g1" x1="0%" y1="0%" x2="100%" y2="100%">
      <stop offset="0%" stop-color="#c8f07a"/>
      <stop offset="100%" stop-color="#7ed321"/>
    </linearGradient>
    <linearGradient id="g2" x1="100%" y1="0%" x2="0%" y2="100%">
      <stop offset="0%" stop-color="#9fd84a"/>
      <stop offset="100%" stop-color="#5cb018"/>
    </linearGradient>
  </defs>
  <circle cx="24" cy="24" r="22" fill="#111"/>
  <path fill="url(#g1)" d="M24 6a18 18 0 0 1 15.6 9 18 18 0 0 1-31.2 0A18 18 0 0 1 24 6z"/>
  <path fill="url(#g2)" d="M24 10a14 14 0 0 1 12.1 7 14 14 0 0 1-24.2 0A14 14 0 0 1 24 10z"/>
  <circle cx="24" cy="24" r="9" fill="#111"/>
  <path fill="#7ed321" d="M21.2 17.5h4.2c2.2 0 3.7 1.2 3.7 3.1 0 1.3-.7 2.2-1.9 2.7 1.5.5 2.4 1.7 2.4 3.4 0 2.4-1.8 3.8-4.8 3.8h-3.6V17.5zm2.2 5.4h1.8c1 0 1.6-.5 1.6-1.4s-.6-1.4-1.6-1.4h-1.8v2.8zm0 5.7h2.1c1.2 0 1.9-.6 1.9-1.6 0-1-.7-1.6-1.9-1.6h-2.1v3.2z"/>
</svg>
